<svg width="1440" height="1075" viewBox="0 0 1440 1075" fill="none" xmlns="http://www.w3.org/2000/svg">
<g opacity="0.4">
<rect x="517.406" y="1037.95" width="1.25798" height="1.25798" fill="white"/>
<rect opacity="0.4" x="1072.14" y="563.792" width="1.25798" height="1.25798" fill="white"/>
<rect x="1318.02" y="492.966" width="1.25798" height="1.25798" fill="white"/>
<rect x="1246.92" y="233.197" width="1.25798" height="1.25798" fill="white"/>
<rect x="27.0509" y="787.491" width="1.25798" height="1.25798" fill="white"/>
<rect opacity="0.4" x="581.753" y="85.033" width="1.25798" height="1.25798" fill="white"/>
<rect opacity="0.4" x="176.897" y="615" width="1.25798" height="1.25798" fill="white"/>
<rect opacity="0.4" x="605.553" y="873.017" width="1.25798" height="1.25798" fill="white"/>
<rect opacity="0.4" x="1269.39" y="812.294" width="1.25798" height="1.25798" fill="white"/>
<rect x="729.192" y="552.747" width="1.25798" height="1.25798" fill="white"/>
<rect opacity="0.4" x="1397.83" y="95.4904" width="1.25798" height="1.25798" fill="white"/>
<rect x="1172.1" y="514.845" width="1.25798" height="1.25798" fill="white"/>
<rect x="1149.78" y="793.837" width="1.25798" height="1.25798" fill="white"/>
<rect x="957.588" y="475.134" width="1.25798" height="1.25798" fill="white"/>
<rect opacity="0.4" x="808.779" y="750.69" width="1.25798" height="1.25798" fill="white"/>
<rect opacity="0.4" x="770.839" y="634.586" width="1.25798" height="1.25798" fill="white"/>
<rect opacity="0.4" x="438.894" y="76.8047" width="1.25798" height="1.25798" fill="white"/>
<rect x="293.493" y="23.4567" width="1.25798" height="1.25798" fill="white"/>
<rect x="286.15" y="288.822" width="1.25798" height="1.25798" fill="white"/>
<rect x="975.733" y="426.149" width="1.25798" height="1.25798" fill="white"/>
<rect opacity="0.4" x="396.523" y="97.9014" width="1.25798" height="1.25798" fill="white"/>
<rect opacity="0.4" x="1387.84" y="280.822" width="1.25798" height="1.25798" fill="white"/>
<rect opacity="0.4" x="931.02" y="1073.59" width="1.25798" height="1.25798" fill="white"/>
<rect opacity="0.4" x="441.06" y="818.699" width="1.25798" height="1.25798" fill="white"/>
<rect x="1250.04" y="1003.57" width="1.25798" height="1.25798" fill="white"/>
<rect opacity="0.4" x="1207.79" y="513.554" width="1.25798" height="1.25798" fill="white"/>
<rect x="1148.43" y="562.093" width="1.25798" height="1.25798" fill="white"/>
<rect opacity="0.4" x="526.245" y="729.627" width="1.25798" height="1.25798" fill="white"/>
<rect opacity="0.4" x="1184.93" y="593.846" width="1.25798" height="1.25798" fill="white"/>
<rect x="1126.47" y="748.231" width="1.25798" height="1.25798" fill="white"/>
<rect x="184.136" y="401.714" width="1.25798" height="1.25798" fill="white"/>
<rect x="229.587" y="114.049" width="1.25798" height="1.25798" fill="white"/>
<rect x="416.884" y="621.822" width="1.25798" height="1.25798" fill="white"/>
<rect x="137.961" y="673.654" width="1.25798" height="1.25798" fill="white"/>
<rect opacity="0.4" x="816.979" y="398.676" width="1.25798" height="1.25798" fill="white"/>
<path opacity="0.4" d="M177.428 696.792L177.768 697.71L178.686 698.05L177.768 698.39L177.428 699.308L177.088 698.39L176.17 698.05L177.088 697.71L177.428 696.792Z" fill="#C2CDE7"/>
<path d="M445.982 1065.45L446.321 1066.37L447.24 1066.71L446.321 1067.05L445.982 1067.97L445.642 1067.05L444.724 1066.71L445.642 1066.37L445.982 1065.45Z" fill="#C2CDE7"/>
<path d="M170.418 61.5384L170.758 62.4566L171.676 62.7963L170.758 63.1361L170.418 64.0543L170.078 63.1361L169.16 62.7963L170.078 62.4566L170.418 61.5384Z" fill="#C2CDE7"/>
<path opacity="0.4" d="M276.203 457.705L276.543 458.623L277.461 458.963L276.543 459.302L276.203 460.22L275.863 459.302L274.945 458.963L275.863 458.623L276.203 457.705Z" fill="#C2CDE7"/>
<path d="M1145.09 246.492L1145.43 247.41L1146.35 247.75L1145.43 248.089L1145.09 249.008L1144.75 248.089L1143.83 247.75L1144.75 247.41L1145.09 246.492Z" fill="#C2CDE7"/>
<path d="M224.652 841.361L224.991 842.279L225.91 842.619L224.991 842.959L224.652 843.877L224.312 842.959L223.394 842.619L224.312 842.279L224.652 841.361Z" fill="#C2CDE7"/>
<path opacity="0.4" d="M142.126 735.201L142.466 736.119L143.384 736.459L142.466 736.799L142.126 737.717L141.786 736.799L140.868 736.459L141.786 736.119L142.126 735.201Z" fill="#C2CDE7"/>
<path opacity="0.4" d="M899.633 873.212L899.973 874.131L900.891 874.47L899.973 874.81L899.633 875.728L899.294 874.81L898.375 874.47L899.294 874.131L899.633 873.212Z" fill="#C2CDE7"/>
<path opacity="0.4" d="M559.178 460.048L559.518 460.966L560.436 461.306L559.518 461.646L559.178 462.564L558.838 461.646L557.92 461.306L558.838 460.966L559.178 460.048Z" fill="#C2CDE7"/>
<path d="M893.457 271.71L893.796 272.629L894.715 272.968L893.796 273.308L893.457 274.226L893.117 273.308L892.199 272.968L893.117 272.629L893.457 271.71Z" fill="#C2CDE7"/>
<path d="M214.788 216.833L215.128 217.751L216.046 218.091L215.128 218.43L214.788 219.349L214.448 218.43L213.53 218.091L214.448 217.751L214.788 216.833Z" fill="#C2CDE7"/>
<path opacity="0.4" d="M823.291 724.236L823.631 725.154L824.549 725.494L823.631 725.833L823.291 726.752L822.951 725.833L822.033 725.494L822.951 725.154L823.291 724.236Z" fill="#C2CDE7"/>
<path d="M114.394 949.144L114.733 950.062L115.652 950.402L114.733 950.741L114.394 951.66L114.054 950.741L113.136 950.402L114.054 950.062L114.394 949.144Z" fill="#C2CDE7"/>
<path d="M1084.26 994.943L1084.6 995.862L1085.52 996.201L1084.6 996.541L1084.26 997.459L1083.92 996.541L1083 996.201L1083.92 995.862L1084.26 994.943Z" fill="#C2CDE7"/>
<path opacity="0.4" d="M1037.83 621.813L1038.17 622.731L1039.09 623.071L1038.17 623.411L1037.83 624.329L1037.49 623.411L1036.58 623.071L1037.49 622.731L1037.83 621.813Z" fill="#C2CDE7"/>
<path d="M361.881 134.229L362.221 135.147L363.139 135.487L362.221 135.827L361.881 136.745L361.541 135.827L360.623 135.487L361.541 135.147L361.881 134.229Z" fill="#C2CDE7"/>
<path d="M230.785 1022.2L231.125 1023.12L232.043 1023.46L231.125 1023.8L230.785 1024.71L230.446 1023.8L229.527 1023.46L230.446 1023.12L230.785 1022.2Z" fill="#C2CDE7"/>
<path d="M65.0099 280.948L65.3497 281.866L66.2679 282.206L65.3497 282.546L65.0099 283.464L64.6702 282.546L63.752 282.206L64.6702 281.866L65.0099 280.948Z" fill="#C2CDE7"/>
<path opacity="0.4" d="M1233.56 649.833L1233.9 650.752L1234.82 651.091L1233.9 651.431L1233.56 652.349L1233.22 651.431L1232.3 651.091L1233.22 650.752L1233.56 649.833Z" fill="#C2CDE7"/>
<path opacity="0.4" d="M1298.1 400.431L1298.44 401.349L1299.36 401.689L1298.44 402.028L1298.1 402.947L1297.76 402.028L1296.84 401.689L1297.76 401.349L1298.1 400.431Z" fill="#C2CDE7"/>
<path d="M1072.05 646.721L1072.38 647.64L1073.3 647.979L1072.38 648.319L1072.05 649.237L1071.71 648.319L1070.79 647.979L1071.71 647.64L1072.05 646.721Z" fill="#C2CDE7"/>
<path d="M980.485 897.387L980.824 898.305L981.743 898.645L980.824 898.985L980.485 899.903L980.145 898.985L979.227 898.645L980.145 898.305L980.485 897.387Z" fill="#C2CDE7"/>
<path d="M397.146 210.375L397.485 211.293L398.404 211.633L397.485 211.973L397.146 212.891L396.806 211.973L395.888 211.633L396.806 211.293L397.146 210.375Z" fill="#C2CDE7"/>
<path opacity="0.4" d="M1292.22 514.582L1292.56 515.5L1293.48 515.84L1292.56 516.18L1292.22 517.098L1291.88 516.18L1290.96 515.84L1291.88 515.5L1292.22 514.582Z" fill="#C2CDE7"/>
<path opacity="0.4" d="M1106.13 961.013L1106.47 961.931L1107.39 962.271L1106.47 962.61L1106.13 963.529L1105.79 962.61L1104.87 962.271L1105.79 961.931L1106.13 961.013Z" fill="#C2CDE7"/>
<path d="M726.528 1048.93L726.868 1049.85L727.786 1050.19L726.868 1050.53L726.528 1051.45L726.189 1050.53L725.271 1050.19L726.189 1049.85L726.528 1048.93Z" fill="#C2CDE7"/>
<path d="M358.836 788.154L359.176 789.072L360.094 789.412L359.176 789.752L358.836 790.67L358.496 789.752L357.578 789.412L358.496 789.072L358.836 788.154Z" fill="#C2CDE7"/>
<path opacity="0.4" d="M679.917 599.726L680.257 600.644L681.175 600.984L680.257 601.323L679.917 602.242L679.578 601.323L678.659 600.984L679.578 600.644L679.917 599.726Z" fill="#C2CDE7"/>
<path d="M762.233 161.47L762.572 162.388L763.491 162.728L762.572 163.068L762.233 163.986L761.893 163.068L760.975 162.728L761.893 162.388L762.233 161.47Z" fill="#C2CDE7"/>
<path opacity="0.4" d="M1410.75 357.58L1411.09 358.499L1412.01 358.838L1411.09 359.178L1410.75 360.096L1410.41 359.178L1409.49 358.838L1410.41 358.499L1410.75 357.58Z" fill="#C2CDE7"/>
<path opacity="0.4" d="M723.545 129.468L723.885 130.387L724.803 130.726L723.885 131.066L723.545 131.984L723.205 131.066L722.287 130.726L723.205 130.387L723.545 129.468Z" fill="#C2CDE7"/>
<path opacity="0.4" d="M1274.47 215.983L1274.81 216.901L1275.73 217.241L1274.81 217.581L1274.47 218.499L1274.13 217.581L1273.21 217.241L1274.13 216.901L1274.47 215.983Z" fill="#C2CDE7"/>
<path d="M968.842 979.332L969.182 980.25L970.1 980.59L969.182 980.929L968.842 981.848L968.502 980.929L967.584 980.59L968.502 980.25L968.842 979.332Z" fill="#C2CDE7"/>
<path d="M1297.61 486.58L1297.95 487.499L1298.87 487.838L1297.95 488.178L1297.61 489.096L1297.27 488.178L1296.35 487.838L1297.27 487.499L1297.61 486.58Z" fill="#C2CDE7"/>
<path opacity="0.4" d="M825.432 292.266L825.772 293.185L826.69 293.524L825.772 293.864L825.432 294.782L825.092 293.864L824.174 293.524L825.092 293.185L825.432 292.266Z" fill="#C2CDE7"/>
<path opacity="0.4" d="M162.762 570.927L163.102 571.846L164.02 572.185L163.102 572.525L162.762 573.443L162.422 572.525L161.504 572.185L162.422 571.846L162.762 570.927Z" fill="#C2CDE7"/>
</g>
<ellipse cx="720" cy="111" rx="823" ry="354" fill="url(#paint0_radial_1_516)"/>
<defs>
<radialGradient id="paint0_radial_1_516" cx="0" cy="0" r="1" gradientUnits="userSpaceOnUse" gradientTransform="translate(720 -37.7041) rotate(90) scale(502.704 1168.72)">
<stop stop-color="#232BFF"/>
<stop offset="1" stop-color="#0B0E14" stop-opacity="0"/>
</radialGradient>
</defs>
</svg>
