<svg width="100" height="100" viewBox="0 0 100 100" fill="none" xmlns="http://www.w3.org/2000/svg">
<path opacity="0.18" d="M77.1305 84.5407L77.1223 84.5104C76.8948 83.683 76.0396 83.1966 75.2123 83.4242L68.2215 85.3459C68.2324 85.1778 68.2176 85.0053 68.1704 84.8337L68.1621 84.8035C67.9346 83.9761 67.0795 83.4898 66.2521 83.7172L61.1657 85.1154C61.1856 84.9278 61.1728 84.7336 61.1198 84.5407L61.1115 84.5105C60.884 83.6831 60.0288 83.1967 59.2015 83.4243L52.2108 85.346C52.2216 85.1779 52.2068 85.0054 52.1596 84.8338L52.1513 84.8036C51.9239 83.9762 51.0687 83.4899 50.2413 83.7173L41.1649 86.2124C40.3376 86.4399 39.8512 87.2949 40.0787 88.1224L40.087 88.1526C40.3144 88.9801 41.1695 89.4663 41.9969 89.2389L48.9877 87.3171C48.9768 87.4852 48.9916 87.6578 49.0388 87.8293L49.0471 87.8596C49.2746 88.687 50.1296 89.1733 50.9571 88.9459L56.0435 87.5476C56.0236 87.7352 56.0364 87.9294 56.0895 88.1223L56.0977 88.1525C56.3252 88.98 57.1804 89.4662 58.0077 89.2388L64.9985 87.317C64.9876 87.4851 65.0024 87.6577 65.0496 87.8292L65.0579 87.8595C65.2854 88.6869 66.1404 89.1732 66.9679 88.9458L76.0443 86.4507C76.8716 86.2232 77.358 85.368 77.1305 84.5407Z" fill="black"/>
<path d="M38.2732 55.3178L44.5896 59.7932L48.8487 61.3944C49.7778 61.7437 50.142 62.8652 49.5953 63.6937L49.5776 63.7205C49.1912 64.306 48.4204 64.4972 47.8053 64.1601C46.3846 63.3814 44.0024 62.07 43.3473 61.6733C42.3957 61.097 37.1304 56.9276 37.1304 56.9276L38.2732 55.3178Z" fill="#3C50F8"/>
<path d="M51.0982 62.5214C52.3982 63.6272 52.9548 66.1266 53.0819 68.1965C53.209 70.2665 54.5322 73.8077 51.218 73.8769C47.9039 73.9461 45.8973 73.0236 46.7753 70.5539C47.6534 68.0841 46.2582 66.2756 46.2544 64.5206C46.2507 62.7656 47.5922 61.7779 48.6871 61.7194C49.7819 61.661 50.165 61.7275 51.0982 62.5214Z" fill="#3C50F8"/>
<path d="M47.6359 61.3054L50.0063 63.2159C50.6277 63.7167 51.5374 63.619 52.0383 62.9976L54.1556 60.3705C54.6564 59.7491 54.5588 58.8394 53.9374 58.3385L51.567 56.428C50.9456 55.9271 50.0359 56.0249 49.535 56.6463L47.4176 59.2734C46.9169 59.8948 47.0146 60.8045 47.6359 61.3054Z" fill="#232BFF"/>
<path d="M48.5063 60.0245L48.5151 60.0316C48.7568 60.2265 49.1107 60.1884 49.3056 59.9467L50.9971 57.848C51.1919 57.6063 51.1539 57.2524 50.9121 57.0576L50.9033 57.0504C50.6616 56.8556 50.3077 56.8937 50.113 57.1354L48.4214 59.234C48.2265 59.4758 48.2646 59.8297 48.5063 60.0245Z" fill="white"/>
<path d="M48.3808 59.7485L48.3852 59.7521C48.5055 59.849 48.6816 59.8301 48.7786 59.7098L49.6206 58.6652C49.7176 58.5449 49.6987 58.3687 49.5784 58.2718L49.574 58.2682C49.4537 58.1712 49.2776 58.1901 49.1806 58.3105L48.3386 59.3551C48.2416 59.4754 48.2606 59.6515 48.3808 59.7485Z" fill="#2D404C"/>
<path d="M58.5477 61.4891L58.5508 61.4753C58.637 61.0983 58.3184 60.704 57.8393 60.5945L53.6794 59.6436C53.2002 59.534 52.742 59.7509 52.6559 60.1278L52.6527 60.1416C52.5666 60.5185 52.8851 60.9129 53.3642 61.0225L57.5241 61.9734C58.0032 62.0829 58.4615 61.8661 58.5477 61.4891Z" fill="#232BFF"/>
<path d="M58.3247 61.7859L58.3263 61.7788C58.3708 61.5843 58.0415 61.3431 57.5907 61.2401L53.6771 60.3454C53.2264 60.2424 52.825 60.3166 52.7805 60.511L52.7789 60.5182C52.7345 60.7126 53.0638 60.9538 53.5146 61.0569L57.4281 61.9514C57.8788 62.0545 58.2803 61.9804 58.3247 61.7859Z" fill="#2D404C"/>
<path d="M58.6212 59.1304L58.6243 59.1166C58.7105 58.7396 58.3919 58.3453 57.9128 58.2358L53.7529 57.2849C53.2737 57.1753 52.8155 57.3922 52.7293 57.7691L52.7262 57.7829C52.64 58.1599 52.9586 58.5542 53.4377 58.6638L57.5976 59.6146C58.0767 59.7242 58.535 59.5074 58.6212 59.1304Z" fill="#232BFF"/>
<path d="M58.3985 59.4272L58.4001 59.4201C58.4445 59.2256 58.1152 58.9844 57.6644 58.8814L53.7509 57.9867C53.3002 57.8837 52.8987 57.9579 52.8543 58.1523L52.8527 58.1595C52.8082 58.3539 53.1376 58.5951 53.5883 58.6982L57.5019 59.5928C57.9526 59.6958 58.354 59.6217 58.3985 59.4272Z" fill="#2D404C"/>
<path d="M55.1518 85.8624C55.1585 86.2177 54.4624 86.5882 53.5693 86.8593C52.6762 87.1304 51.1043 87.6129 50.6969 86.7037C50.2896 85.7946 50.6584 85.1266 52.373 84.615C54.0875 84.1034 55.1179 84.0603 55.1518 85.8624Z" fill="#232BFF"/>
<path d="M53.293 72.6229C53.6381 71.4078 49.8527 70.3646 49.8527 70.3646L46.3449 79.0219C46.078 79.6803 46.3497 80.4342 46.9752 80.7711L48.3309 81.5014C48.3309 81.5014 52.9479 73.8379 53.293 72.6229Z" fill="#3C50F8"/>
<path d="M53.9317 85.2437L54.081 85.0414C54.3899 84.623 54.2816 84.0189 53.839 83.6921L47.3127 77.8068L46.6574 78.5432C46.01 79.2708 46.1273 80.3972 46.9108 80.9757L52.8673 85.3734C53.2135 85.629 53.69 85.5709 53.9317 85.2437Z" fill="#3C50F8"/>
<path d="M44.856 86.5349C44.859 86.8884 44.1601 87.2874 43.2655 87.5957C42.3709 87.9041 40.7963 88.4521 40.3991 87.5638C40.0019 86.6756 40.3769 85.9944 42.0942 85.4113C43.8115 84.8281 44.8408 84.7409 44.856 86.5349Z" fill="#232BFF"/>
<path d="M50.2586 72.7384C50.9038 71.7662 47.8662 69.7844 47.8662 69.7844L41.6086 77.3024L43.347 79.1497C43.347 79.1497 49.6135 73.7106 50.2586 72.7384Z" fill="#3C50F8"/>
<path d="M43.3104 86.3659L43.5393 86.3269C44.0129 86.2462 44.3241 85.7536 44.2342 85.2265L43.5879 76.7159L42.6172 76.7869C41.7543 76.8499 41.1334 77.6426 41.2787 78.4954L42.5124 85.7339C42.5827 86.1461 42.9399 86.429 43.3104 86.3659Z" fill="#3C50F8"/>
<path d="M67.7182 48.7076C62.4523 43.4758 55.784 40.0611 48.4341 38.8327C41.0843 37.6046 33.6679 38.665 26.9868 41.9L22.9473 33.5575C31.3662 29.4811 40.7078 28.144 49.9621 29.6903C59.2164 31.2371 67.6154 35.5393 74.2512 42.1321L67.7182 48.7076Z" fill="#C40015"/>
<path d="M80.9147 35.5818C72.8804 27.5997 62.7074 22.3899 51.4953 20.5161C40.2837 18.6423 28.9693 20.2607 18.7759 25.1964L14.7363 16.8538C26.6676 11.0766 39.907 9.18174 53.0234 11.3737C66.1399 13.566 78.0435 19.6631 87.4476 29.0062L80.9147 35.5818Z" fill="#C40015"/>
<path opacity="0.18" d="M44.5896 59.7932L38.2732 55.3177L37.1304 56.9275C37.1304 56.9275 42.3956 61.0969 43.3472 61.6732C43.5091 61.7712 43.7767 61.9252 44.1089 62.1131C45.054 61.756 45.9157 61.2295 46.6572 60.5704L44.5896 59.7932Z" fill="black"/>
<path d="M40.6071 62.1118C45.1378 62.1118 48.8107 58.439 48.8107 53.9083C48.8107 49.3776 45.1378 45.7047 40.6071 45.7047C36.0764 45.7047 32.4036 49.3776 32.4036 53.9083C32.4036 58.439 36.0764 62.1118 40.6071 62.1118Z" fill="#C40015"/>
<path d="M36.7353 59.9384L43.7078 63.3018L48.1738 64.1728C49.148 64.3628 49.6935 65.4083 49.2921 66.316L49.2791 66.3454C48.9954 66.9869 48.2671 67.3037 47.6045 67.0734C46.074 66.5417 43.5071 65.6445 42.7951 65.3621C41.761 64.9521 35.876 61.7156 35.876 61.7156L36.7353 59.9384Z" fill="#232BFF"/>
<path d="M38.6121 61.7828C38.8379 61.2751 38.7212 60.432 38.2873 59.6757C37.8535 58.9193 37.7095 58.2856 37.2443 58.0787C36.779 57.8718 36.298 57.9398 36.8305 59.0092C37.3631 60.0786 36.6243 59.0928 36.2433 58.7105C35.8623 58.3283 35.2072 57.5487 34.5584 57.5857C33.9095 57.6228 32.7627 58.7659 33.8901 60.1874C35.0174 61.6088 36.3748 62.3439 37.2367 62.6582C38.0988 62.9727 38.4053 62.248 38.6121 61.7828Z" fill="#232BFF"/>
</svg>
