<svg width="291" height="91" viewBox="0 0 291 91" fill="none" xmlns="http://www.w3.org/2000/svg">
<path d="M0 1.3623H14.458L24.2139 44.6924V1.3623H37.9248V89.3408H23.4668L14.1504 47.1973V89.3408H0V1.3623ZM86.4404 71.7188C86.4404 84.375 80.1123 90.7178 67.4561 90.7471C54.8291 90.7471 48.5156 84.4043 48.5156 71.7188V18.9844C48.5156 6.32812 54.8291 0 67.4561 0C80.1123 0 86.4404 6.32812 86.4404 18.9844V71.7188ZM71.8066 18.9844C71.8066 15.7031 70.3711 14.0479 67.5 14.0186H67.4121C64.5703 14.0186 63.1494 15.6738 63.1494 18.9844V71.7188C63.1494 75.0293 64.585 76.6846 67.4561 76.6846C70.3564 76.6846 71.8066 75.0293 71.8066 71.7188V18.9844ZM131.44 1.3623V15.3809H119.795V89.3408H105.161V15.3809H93.5156V1.3623H131.44ZM139.395 1.3623H173.848V15.3809H154.028V38.3203H171.079V52.3828H154.028V89.3408H139.395V1.3623ZM182.197 89.3408V1.3623H196.831V75.3223H216.65V89.3408H182.197ZM224.341 1.3623H238.975V89.3408H224.341V1.3623ZM261.475 1.3623L268.726 26.5869L275.933 1.3623H290.698L276.108 45.3516L290.698 89.3408H275.933L268.726 61.3916L261.475 89.3408H246.709L261.299 45.3516L246.709 1.3623H261.475Z" fill="url(#paint0_linear_3_979)"/>
<defs>
<linearGradient id="paint0_linear_3_979" x1="10.2871" y1="4.46191" x2="306.787" y2="88.4619" gradientUnits="userSpaceOnUse">
<stop offset="0.307692" stop-color="#C40015"/>
<stop offset="0.774038" stop-color="#232BFF"/>
</linearGradient>
</defs>
</svg>
