<svg width="25" height="25" viewBox="0 0 25 25" fill="none" xmlns="http://www.w3.org/2000/svg">
<g clip-path="url(#clip0_3_1032)">
<path fill-rule="evenodd" clip-rule="evenodd" d="M2.34375 10.1562C2.34375 5.84153 5.84153 2.34375 10.1562 2.34375C14.471 2.34375 17.9688 5.84153 17.9688 10.1562C17.9688 14.471 14.471 17.9688 10.1562 17.9688C5.84153 17.9688 2.34375 14.471 2.34375 10.1562ZM10.1562 0C4.54711 0 0 4.54711 0 10.1562C0 15.7655 4.54711 20.3125 10.1562 20.3125C12.5386 20.3125 14.7293 19.4922 16.4614 18.1187L21.8277 23.4848L22.6562 24.3136L24.3136 22.6562L23.4848 21.8277L18.1187 16.4614C19.4922 14.7293 20.3125 12.5386 20.3125 10.1562C20.3125 4.54711 15.7655 0 10.1562 0Z" fill="#C40015"/>
</g>
<defs>
<clipPath id="clip0_3_1032">
<rect width="25" height="25" fill="white"/>
</clipPath>
</defs>
</svg>
